<?xml version="1.0" encoding="UTF-8"?>
<svg id="Layer_1" xmlns="http://www.w3.org/2000/svg" version="1.1" viewBox="0 0 595.28 841.89">
  <!-- Generator: Adobe Illustrator 30.0.0, SVG Export Plug-In . SVG Version: 2.1.1 Build 123)  -->
  <defs>
    <style>
      .st0 {
        fill: #fff;
      }

      .st1 {
        fill: #fee000;
      }
    </style>
  </defs>
  <path class="st0" d="M598.99,25.83v867.29H-3.71V25.83h602.7ZM175.4,322.77c-11.78-5.22-22.57-7.9-35.18-8.8-5.53-.39-11.43-.5-17.12-.03-.52.04-.89.57-1.4.61-.74.06-4.01-.92-4.21-.72v1.1c-1.3-.57-2.27.33-3.31.55-7.46,1.55-15.8,3.94-22.37,7.74-4.85,2.8-9.81,8.08-13.63,12.45-3.38,3.87-9.52,16.86-11.5,21.91-3.54,9.03-3.74,15.98-4.29,25.45l.76.44c-1.16,26.54,3.63,51.79,8.48,77.44.76,4.04,2.44,4.99,3.67,8.09,1.02,2.59,1.09,6.08,3.1,8.29.41.45,1.16.67,1.66,1.28.85,1.04,3.01,4.74,3.89,5.29s5.51,2.39,6.6,2.58c2.35.42,7,.04,9.05-1.11.13-.07,1.88-1.74,2.11-1.99,4.71-4.8,7.21-9.08,8.06-15.84.4-3.21.38-2.16,1.58-5.03,2.08-4.98,3.97-9.15,4.98-14.49.1-.55-.32-1.1-.2-1.65.2-.97,2.03-3.19,2.33-4.3.65-2.42.87-3.27,1.72-5.63,2.23-6.25,4.06-12.7,5.98-19,.35-1.14.75-4.64,1.43-5.18,1.34-.41,2.74-.74,4.11-1.03,3.07-.64,4.85-.31,7.68-.4,3.77-.13,6.95-1.24,10.96-.97,4.47.31,8.46-1.57,12.94-2.65,2.22-.54,5.39-.55,7.63-1.51.45-.19.04-.88.47-1.13,1.49-.83,5.36-1.59,7.36-2.49,1.47-.66,3.69-1.83,5.04-2.69,2.64-1.69,3.18-3.29,5.22-5.42,5.61-5.86,11.54-9.9,14.59-18.1,1.33-3.57.7-6.06,1.05-9.21.17-1.57,1.24-3.99,1.31-5.7.13-3.08-1.25-13.25-2.39-16.15s-3.26-4.04-5-6.01c-5.04-5.69-4.7-6.04-11.67-9.62-.84-.43-1.72-1.99-2.61-2.56-2.56-1.67-5.67-1.92-8.1-2.93-.49-.2-.56-.82-.73-.9ZM296.22,339.3c-7.05-6.58-16.77-8.7-26.14-9.31s-14.61,2.91-21.82,7.92c-7.29,5.06-12.02,9.66-18.21,15.59-1.98,1.89-5.44,4.08-7.17,6.06-.79.9-1.15,2.6-2.04,3.47-1.91,1.87-1.88,1.7-3.62,3.92-7.44,9.52-13.06,18.5-17.31,29.88-.25.68-1.14,1.37-1.45,2.22-1.01,2.7-.92,7.65-1.29,10.47-1.45,11.15-4.07,24.02-3.31,35.25.14,2.05,1.11,4.9,1.14,6.64.03,1.28-.52,2.19-.32,3.58.35,2.48,2.7,4.95,3.58,6.81.54,1.15.71,4.44,1.31,5.94.21.51,5.96,8.1,6.63,8.79,1.77,1.83,3.07,2.33,4.93,4.54,3.88,4.6,4.81,4.02,9.15,7.1,2.79,1.98,3.74,3.86,7.61,4.79,1.5.36,4.83,0,5.4.15.27.07.22.69.48.74,2.39.49,15.39-2.95,18.56-3.77,3.99-1.03,14.57-7.56,17.45-10.31,1.06-1.01,1.28-1.59,2.64-2.7,2.95-2.41,5.97-7.37,9.22-10.29.51-.46.99-.17,1.05-.22.32-.3.45-1.49.91-2.01.43-.48,1.36-.69,2.04-1.45,1.22-1.39,2.88-4.77,4.11-6.46,2.94-4.07,2.52-4.03,4.49-8.45,1.08-2.42,3.62-5.13,4.47-7.28,3.97-9.94,6.61-21.48,8.75-32.02,2.31-11.4,5.23-24.23,5.44-35.73.06-3.52-.7-9.75-2.26-12.81-1.04-2.03-2.71-3.67-3.71-5.47-2.42-4.34-3.1-7.13-6.38-10.89-1.33-1.53-2.85-3.3-4.32-4.67ZM511.21,333.67c-4.24,1.84-7.99.25-12.56,1.21-9.72,2.04-15.33,7.55-22.52,13.49-.94.77-2.04,1.44-2.83,2.66-6.36,9.67-11.36,21.29-16.37,31.75-1.41,2.95-3,5.49-4.12,8.74-4.78,13.96-2.04,29.37.01,43.31,1.92,13,8.93,29.8,17.04,40.29.32.41.29,1.12.59,1.54,1.41,1.98,8.8,6.05,11.16,7.66.65.45,1.46,1.53,2.07,1.96,5.67,4,11.71,5.65,18.07,7.28,2.62.67,2.8.26,5.06.42,1.43.1,3.09,1.09,4.25,1.3,8.52,1.55,26.86-4.36,34.44-8.86,3.36-2,6.76-7.04,9.84-10,7.79-7.5,11.49-11.82,15.83-22.01,3.34-7.85,7.1-20.21,7.64-28.73.2-3.19-.76-7.43-.73-10.65.02-1.88.92-3.57.75-5.9-.46-6.04-2.11-13.47-3.96-19.18-1.04-3.22-1.96-4.9-3.22-7.8-1.55-3.55-.83-3.9-3.28-7.74-.99-1.55-1.36-4.49-2.62-6.2-.8-1.08-1.91-1.49-2.73-2.41-1.53-1.73-2.66-4.77-4.26-6.76-6.73-8.42-15.97-14.4-25.36-19.09-6.59-3.29-13.92-3-20.43-4.84-.32-.09-.28-.72-.48-.72l-1.26.38v-1.11ZM432.85,345.18c-.71-.56-2.03-1.34-2.85-1.74-4.38-2.12-9.67-4.51-14.19-6.02-5.66-1.9-16.82-.17-22.73.61-2.67.35-5.71-.03-8.38.63-7.81,1.91-13.93,4.71-21.37,8.19-6.37,2.97-8.83,3.64-14.1,8.67-3.86,3.68-7.29,7.72-10.64,11.77-.57.69-1.64,1.04-2.37,2.04-1.58,2.14-5.36,10.49-6.72,13.48-7.79,17.07-14.21,42.41-10.4,60.9.79,3.84,2.19,5.33,3.07,8.69,3.42,13.03,6.35,16.31,15.69,25.45,4.22,4.13,7.23,4.72,12.03,7.78,6.86,4.39,14.7,6.22,23.04,8.41.75.2,1.48-.43,2.2.9l.36-.73c2.21,1.65,5.44.84,8.07.94s4.3.63,7.29.11c8.77-1.55,20.46-7.05,27.91-11.77,2.33-1.48,4.7-1.56,6.83-3.46,4.12-3.67,12.9-11.41,15.93-15.65,5.1-7.14,5.24-16.7,3.78-24.92-.66-3.72-4.32-13.18-6.99-15.44-.31-.26-.92.02-1.11-.32-.27-.49-.09-1.17-.55-1.68-1.57-1.77-5.64-3.23-6.62-4.08-.53-.46-.52-1.19-.93-1.61-2.4-2.47-11.12-4.52-14.72-5.09-6.64-1.05-14.09-.29-20.22-1.82-3.22-.8-5.04-1.79-5.27-5.38-.03-.6,2.33.21,2.75.17.55-.06,1.01-.66,1.84-.76,3-.34,7.44.71,10.27.96,4.03.35,7.73.12,11.74.2,2.04.04,3.98.89,5.93.98,2.09.1,4.62-.89,6.99-.93,1.61-.03,4.15.75,5.25.06.13-.08,2.03-2.02,2.17-2.21,2.4-3.13,3.87-6.53,5.65-9.79,2.51-4.58,1.75-4.39,2.17-9.21.14-1.69,1.11-3.17,1.09-4.82-.02-1.77-.97-3.52-1.14-5.16-.13-1.25.43-2.81.4-4.02-.06-2.64-.86-4.46-1.39-6.71-1.87-7.93-3.2-12.44-9.78-17.59Z"/>
  <path d="M432.85,345.18c6.58,5.14,7.9,9.66,9.78,17.59.53,2.26,1.33,4.08,1.39,6.71.03,1.21-.54,2.78-.4,4.02.17,1.64,1.12,3.39,1.14,5.16.02,1.66-.95,3.13-1.09,4.82-.41,4.83.34,4.63-2.17,9.21-1.78,3.25-3.25,6.65-5.65,9.79-.15.19-2.04,2.13-2.17,2.21-1.11.69-3.64-.09-5.25-.06-2.37.04-4.9,1.03-6.99.93-1.95-.09-3.89-.94-5.93-.98-4-.08-7.71.15-11.74-.2-2.84-.24-7.27-1.3-10.27-.96-.83.09-1.29.7-1.84.76-.42.04-2.78-.77-2.75-.17.22,3.59,2.05,4.58,5.27,5.38,6.13,1.53,13.58.77,20.22,1.82,3.61.57,12.33,2.62,14.72,5.09.4.42.4,1.15.93,1.61.98.86,5.05,2.32,6.62,4.08.46.51.28,1.19.55,1.68.18.33.8.06,1.11.32,2.67,2.25,6.33,11.72,6.99,15.44,1.46,8.22,1.32,17.78-3.78,24.92-3.03,4.24-11.81,11.98-15.93,15.65-2.12,1.89-4.5,1.98-6.83,3.46-7.45,4.72-19.14,10.22-27.91,11.77-2.99.53-4.57,0-7.29-.11s-5.86.71-8.07-.94l-.36.73c-.72-1.33-1.46-.7-2.2-.9-8.33-2.19-16.18-4.02-23.04-8.41-4.8-3.07-7.81-3.65-12.03-7.78-9.34-9.14-12.27-12.41-15.69-25.45-.88-3.35-2.28-4.85-3.07-8.69-3.8-18.5,2.61-43.83,10.4-60.9,1.36-2.99,5.14-11.34,6.72-13.48.73-1,1.8-1.35,2.37-2.04,3.35-4.04,6.78-8.08,10.64-11.77,5.27-5.03,7.73-5.7,14.1-8.67,7.44-3.47,13.55-6.28,21.37-8.19,2.68-.66,5.71-.28,8.38-.63,5.91-.77,17.07-2.51,22.73-.61,4.51,1.52,9.81,3.9,14.19,6.02.82.4,2.14,1.18,2.85,1.74ZM425.76,347.13c-3.53-3.29-4.78-2.44-9.12-2.65-7.83-.38-19.5-.74-27.01,1.11-5.78,1.43-12.82,3.43-18.24,5.63-.62.25-1.27.44-1.94.45l.36.71c-4.14,1.67-5.2,6.16.89,5.49,3.97-.43,9.05-3.35,13.06-4.2,5.46-1.17,13.6-3.04,18.99-3.45,2.45-.19,5.9.64,8.38.73,3.42.12,6.88-.19,10.3-.02,1.06.05,1.92.74,2.93.74.93,0,2.06-.63,3.13-.37.31-2.54-.17-2.73-1.71-4.17ZM436.87,357.69c-.83-.63-4.88-2.59-5.73-1.98l.26.65-.66.6c.14,3.67,1.79,6.63,3.06,9.86.63,1.61.56,3.25,1.76,4.86.81,1.09,1.75,1.16,2.43,1.81.98.93,4.04,5.18,4.5,1.48.3-2.42-.68-4.04-1.03-6.25-.73-4.71-.18-7.68-4.59-11.02ZM427.98,390.74c-2.87,4.32-1.07,6.88,3.51,3.7,2.24-1.55,3.36-4.07,4.71-6.31.36-.6,1.18-1.16,1.37-1.57.57-1.23.41-2.54-1.09-2.6-2.33-.1-7.2,4.83-8.49,6.78ZM329.03,421.84c-2.53-.99-4.06,2.3-5.09,4.26-2.75,5.25-2.32,5.71-2.23,11.33.06,3.79-.57,6.74.97,10.41.22.53,2.07,3.99,2.31,4.31.34.46,1.7,1.13,2,2.03,3.2,1.28,1.67-1.68,1.68-3.15,0-.94.61-1.7.71-2.59.19-1.74-.13-7.19-.42-9.04-.3-1.99-1.74-4.05-2.04-6.08-.66-4.52,1.7-7.29,2.1-11.47ZM439.95,439.82c-2.14.18-1.48,1.14-2.04,2.55-.13.32-.66.55-.82,1.03-.18.54.29,1.53-.15,2.4-.61,1.2-2.83,1.29-2.5,2.85l-.72-.37-1.52,4.17c-4.7,2.42-6.13,7.57-8.69,11.86-.07.94,1.34,1.52.66,2.69,5.73.68,12.58-7.33,15.13-11.86.62-1.09,3.5-6.91,3.6-7.78.19-1.57.2-4.1-1.48-4.79l.73-.36c-1.18-.58-.87-1.66-2.2-.92v-1.47Z"/>
  <path d="M175.4,322.77c.17.08.24.7.73.9,2.43,1,5.55,1.26,8.1,2.93.88.58,1.77,2.13,2.61,2.56,6.96,3.58,6.62,3.93,11.67,9.62,1.75,1.97,3.81,2.98,5,6.01s2.52,13.07,2.39,16.15c-.07,1.71-1.14,4.14-1.31,5.7-.35,3.14.28,5.64-1.05,9.21-3.05,8.2-8.98,12.24-14.59,18.1-2.04,2.13-2.58,3.73-5.22,5.42-1.35.86-3.57,2.04-5.04,2.69-2,.9-5.87,1.66-7.36,2.49-.44.24-.03.94-.47,1.13-2.24.96-5.41.97-7.63,1.51-4.48,1.08-8.48,2.96-12.94,2.65-4.01-.28-7.19.84-10.96.97-2.82.1-4.6-.24-7.68.4-1.37.29-2.77.62-4.11,1.03-.68.54-1.09,4.04-1.43,5.18-1.92,6.29-3.75,12.74-5.98,19-.84,2.37-1.07,3.22-1.72,5.63-.3,1.11-2.12,3.32-2.33,4.3-.12.55.3,1.1.2,1.65-1.01,5.34-2.9,9.51-4.98,14.49-1.2,2.87-1.18,1.82-1.58,5.03-.84,6.76-3.34,11.04-8.06,15.84-.24.24-1.98,1.91-2.11,1.99-2.05,1.15-6.7,1.52-9.05,1.11-1.08-.19-5.71-2.02-6.6-2.58s-3.04-4.25-3.89-5.29c-.5-.61-1.25-.83-1.66-1.28-2.01-2.22-2.07-5.7-3.1-8.29-1.23-3.1-2.9-4.05-3.67-8.09-4.85-25.65-9.64-50.9-8.48-77.44l-.76-.44c.56-9.46.75-16.42,4.29-25.45,1.99-5.06,8.12-18.04,11.5-21.91,3.81-4.37,8.78-9.65,13.63-12.45,6.57-3.8,14.91-6.18,22.37-7.74,1.04-.22,2.02-1.12,3.31-.55v-1.1c.2-.2,3.47.79,4.21.72.51-.04.88-.57,1.4-.61,5.69-.47,11.6-.36,17.12.03,12.61.9,23.4,3.58,35.18,8.8ZM98.15,339.31c4.18-4.08,7.93-5.62,12.99-7.76,2.06-.87,6.09-3.03,6.34-5.44.19-1.84-1.91-1.99-3.5-2-3.14-.02-9.49,2.82-12.16,4.55-7.71,5.01-15.29,11.23-20.26,19.23-2.7,4.35-6.75,11.66-8.13,16.48-.32,1.13-1.19,3.53-.39,4.39.08.09,1.91,1.14,2.03,1.15.2.01,3.08-1.57,3.38-1.82,1.67-1.45,2.68-6.3,4-8.67,3.36-6.02,6.14-10.28,11.18-14.9,1.77-1.62,2.96-3.68,4.53-5.21ZM186.37,338.23c1.8,2.66,3.67,4.6,5.02,7.66,1.26,2.84,1.4,7.68,2.41,10.45.61,1.68,3.37,5.01,4.77,2.4s.15-6.02-.24-8.8c-.73-5.21-.9-8.29-4.8-12.43-2.11-2.24-7.91-5.87-7.76-.33.03,1.09.41.76.6,1.05ZM162.42,347.85c-2.75-1.9-8.26-3.71-11.96-4.4-8.61-1.61-21.28,10.17-20.86,18.66.01.21.62.17.71.48,1.36,4.76.49,7.25,4.41,11.32,2.68,2.77,4.73,2.11,7.26,3.76.73.48.91,1.2,1.22,1.39.52.33,1.15-.22,1.48-.02.22.13.18.8.61.92s3.15.44,3.59.4c.69-.06,1.25-.64,1.46-.64.56,0,1.95.7,3.67.59,1.41-.09,7.65-2,8.74-2.64.41-.24,6.82-5.92,7.12-6.29,1.47-1.82,1.81-6.17,1.49-8.42s-1.97-3.59-1.01-5.79l-1.1.37c.03-3.72-2.14-5.96-4.77-8.27-.64-.56-1.39-.95-2.08-1.42ZM75.76,386.07c-.44-1.27-.83-5.33-2.7-4.47-2.93,1.35-1.54,10.88-1.46,13.58.19,6.18-.34,15.87,1.55,21.59.32.97,1.07,1.66,1.39,2.65.58,1.79.65,3.76,1.43,5.51l1.11.2c.57-2.36.27-4.74.42-7.12.53-8.13,0-15.1-.42-23.17-.23-4.46.12-4.61-1.32-8.77Z"/>
  <path d="M511.21,333.67v1.11s1.26-.38,1.26-.38c.2,0,.16.63.48.72,6.51,1.85,13.84,1.55,20.43,4.84,9.39,4.68,18.62,10.67,25.36,19.09,1.6,2,2.72,5.03,4.26,6.76.82.92,1.93,1.33,2.73,2.41,1.26,1.7,1.63,4.65,2.62,6.2,2.45,3.84,1.73,4.18,3.28,7.74,1.26,2.89,2.18,4.58,3.22,7.8,1.85,5.71,3.5,13.15,3.96,19.18.18,2.33-.73,4.02-.75,5.9-.03,3.21.92,7.45.73,10.65-.53,8.52-4.3,20.88-7.64,28.73-4.33,10.18-8.04,14.51-15.83,22.01-3.07,2.96-6.47,8-9.84,10-7.58,4.51-25.92,10.41-34.44,8.86-1.16-.21-2.82-1.2-4.25-1.3-2.26-.16-2.44.25-5.06-.42-6.36-1.63-12.39-3.28-18.07-7.28-.61-.43-1.42-1.51-2.07-1.96-2.35-1.61-9.75-5.68-11.16-7.66-.29-.42-.27-1.13-.59-1.54-8.11-10.49-15.13-27.3-17.04-40.29-2.06-13.94-4.79-29.35-.01-43.31,1.11-3.25,2.7-5.79,4.12-8.74,5.01-10.46,10.01-22.08,16.37-31.75.8-1.21,1.9-1.88,2.83-2.66,7.18-5.94,12.8-11.45,22.52-13.49,4.57-.96,8.32.63,12.56-1.21ZM522.47,343.72c-2.42-1.39-3.42-.2-5.57-.21-2.38-.02-4.75-.74-6.93-.88-1.83-.12-4.89.54-6.59.73s-7.63,1.62-9.05,2.26c-.49.22-1.03,1.2-1.71,1.59-3.83,2.21-10.06,5.33-12.59,9.16-1.6,2.43-3.11,3.55-5.11,5.79-1.29,1.44-1.97,4.29-3.41,6.17-2.97,3.88-6.4,9.51-7.72,14.32-1.66,6.06-2.66,9.98-2.96,16.22-.18,3.73-1.97,7.16-1.75,10.65.25,4.15.75,8.75,1.29,12.73.3,2.25.08,3.08.18,4.89.14,2.25,4.55,15.43,5.79,17.73,3.09,5.73,5.75,11.41,9.39,16.88,3.06,4.6,7.58,7.03,11.38,10.64s6.7,4.43,10.71,7.12c.61.41,1.83,1.94,2.31,2.18,3.12,1.57,9.66,3.17,12.81,3.57.44.06.94-.26,1.32-.16.94.24,2.64,1.37,3.39,1.36.67,0,1.17-.69,1.83-.69s1.18.69,1.84.7c.82,0,1.27-.82,1.9-.97.83-.19,2.97.31,4.34.04,9.91-1.95,19.59-8.14,26.57-15.19,5.89-5.95,8.65-12.56,12.57-19.95,4.45-8.38,6.18-20.23,6.55-29.8.2-5.06.36-10.27-.35-15.44-.26-1.9-1.61-5.29-2.09-7.46-2.4-10.83-3.22-17.12-10.87-25.71-4.08-4.58-9.45-8.31-14.22-12.39-1.23-1.05-1.92-2.94-3.26-4.07-.78-.66-2.17-1.1-2.69-1.62-2.14-2.14-3.82-4.82-6.9-6.42s-7.03-1.82-10.38-3.75Z"/>
  <path d="M296.22,339.3c1.47,1.37,2.99,3.14,4.32,4.67,3.28,3.76,3.96,6.55,6.38,10.89,1.01,1.8,2.67,3.44,3.71,5.47,1.57,3.06,2.33,9.29,2.26,12.81-.21,11.51-3.13,24.33-5.44,35.73-2.14,10.54-4.78,22.09-8.75,32.02-.86,2.15-3.4,4.86-4.47,7.28-1.97,4.42-1.55,4.38-4.49,8.45-1.23,1.7-2.88,5.08-4.11,6.46-.67.76-1.6.98-2.04,1.45-.46.51-.59,1.7-.91,2.01-.06.05-.54-.23-1.05.22-3.25,2.92-6.27,7.88-9.22,10.29-1.36,1.11-1.58,1.69-2.64,2.7-2.89,2.75-13.47,9.28-17.45,10.31-3.17.82-16.17,4.26-18.56,3.77-.26-.05-.21-.67-.48-.74-.57-.14-3.9.21-5.4-.15-3.87-.93-4.82-2.81-7.61-4.79-4.34-3.08-5.27-2.49-9.15-7.1-1.86-2.21-3.16-2.71-4.93-4.54-.67-.69-6.43-8.28-6.63-8.79-.61-1.5-.77-4.79-1.31-5.94-.88-1.87-3.23-4.34-3.58-6.81-.2-1.39.35-2.3.32-3.58-.03-1.74-1.01-4.59-1.14-6.64-.76-11.22,1.86-24.1,3.31-35.25.37-2.82.28-7.76,1.29-10.47.32-.85,1.2-1.54,1.45-2.22,4.25-11.38,9.86-20.36,17.31-29.88,1.74-2.23,1.71-2.06,3.62-3.92.89-.87,1.25-2.57,2.04-3.47,1.73-1.98,5.19-4.17,7.17-6.06,6.19-5.93,10.92-10.53,18.21-15.59,7.22-5.01,12.51-8.52,21.82-7.92s19.09,2.73,26.14,9.31ZM266.88,340.39c-2.17-.97-13.98,1.96-16.33,3.11-2.11,1.03-5.74,4.83-7.84,6.48-1.17.92-3.21,1.69-4.36,2.62-4.71,3.81-8.35,9.61-12.54,13.92-.36.37-1.08.37-1.36.65-.35.35-1.23,3.26-1.83,4.25-.68,1.12-3.66,3.83-3.95,4.49-.64,1.45-.23,2.64-1.5,4.74-2.16,3.54-3.55,3.19-4.85,8.01-.26.97.19,2.53-.85,3.21-.34.22-1.01.15-1.07.21-.2.21.35,1.19.28,1.6-.03.18-1.5,2.1-1.83,2.9-4.37,10.72-5.19,21.15-5.75,32.45-.26,5.36-.96,11.93-.42,17.19.31,3.03,2.16,6.08,3.13,9.02,2.4,7.29,4.12,10.91,7.34,17.64,1.85,3.88,2.32,2.95,4.82,5.29,3.55,3.32,3.58,5.47,9.14,6.09,1.48.17,4.2-.19,5.51.17.55.15.71.8,1.49.94,2.8.49,7.19-2.07,9.71-3.12,4.54-1.91,9.9-3.83,13.99-6.21,6.3-3.67,11.25-8.97,15.76-14.73,1.86-2.38,3.37-5.15,5.16-7.24,1.27-1.49,3.46-2.54,4.61-4.11,3.2-4.36,5.58-8.93,8.07-13.78,2.31-4.49,5.12-9.33,6.62-14.35,1.31-4.4,1.75-9.93,2.95-14.62,2.07-8.11,5.19-19.38,3.72-27.73-.71-4.05-2.27-7.79-3.4-11.66-.77-2.62-1.3-6.65-2.36-9.02-.61-1.36-2.01-1.93-2.61-2.9-2.49-4.11-2.26-4.83-6.03-8.3-.64-.59-1.16-2.34-2.04-2.73s-1.94-.08-2.95-.36c-3.45-.96-4.06-3.26-8.56-3.36-3.28-.08-7.07.5-9.89-.76Z"/>
  <path class="st0" d="M425.76,347.13c1.54,1.44,2.02,1.63,1.71,4.17-1.07-.26-2.2.38-3.13.37-1.01,0-1.87-.69-2.93-.74-3.42-.17-6.88.14-10.3.02-2.48-.09-5.93-.91-8.38-.73-5.39.41-13.53,2.28-18.99,3.45-4.01.86-9.09,3.77-13.06,4.2-6.1.67-5.04-3.83-.89-5.49l-.36-.71c.67-.02,1.32-.2,1.94-.45,5.43-2.2,12.46-4.2,18.24-5.63,7.51-1.85,19.19-1.49,27.01-1.11,4.35.21,5.59-.64,9.12,2.65Z"/>
  <path class="st0" d="M439.95,439.82v1.47c1.34-.74,1.03.34,2.21.92l-.73.36c1.68.68,1.66,3.22,1.48,4.79-.1.87-2.99,6.69-3.6,7.78-2.56,4.53-9.4,12.54-15.13,11.86.68-1.18-.73-1.76-.66-2.69,2.56-4.29,3.99-9.45,8.69-11.86l1.52-4.17.72.37c-.33-1.56,1.89-1.65,2.5-2.85.44-.86-.03-1.86.15-2.4.16-.48.69-.71.82-1.03.56-1.41-.1-2.37,2.04-2.55Z"/>
  <path class="st0" d="M329.03,421.84c-.41,4.18-2.76,6.95-2.1,11.47.3,2.03,1.73,4.09,2.04,6.08.28,1.85.61,7.3.42,9.04-.1.89-.71,1.66-.71,2.59,0,1.47,1.52,4.43-1.68,3.15-.29-.9-1.66-1.56-2-2.03-.24-.33-2.09-3.79-2.31-4.31-1.55-3.67-.91-6.63-.97-10.41-.09-5.61-.52-6.08,2.23-11.33,1.03-1.96,2.56-5.25,5.09-4.26Z"/>
  <path class="st0" d="M436.87,357.69c4.41,3.34,3.86,6.31,4.59,11.02.34,2.22,1.33,3.83,1.03,6.25-.46,3.71-3.52-.55-4.5-1.48-.68-.64-1.62-.72-2.43-1.81-1.2-1.6-1.13-3.25-1.76-4.86-1.26-3.23-2.91-6.19-3.06-9.86l.66-.6-.26-.65c.85-.61,4.9,1.35,5.73,1.98Z"/>
  <path class="st0" d="M427.98,390.74c1.29-1.95,6.16-6.88,8.49-6.78,1.5.06,1.66,1.37,1.09,2.6-.19.41-1.01.96-1.37,1.57-1.35,2.25-2.47,4.76-4.71,6.31-4.58,3.18-6.38.63-3.51-3.7Z"/>
  <path class="st1" d="M162.42,347.85c.69.48,1.44.86,2.08,1.42,2.63,2.31,4.8,4.55,4.77,8.27l1.1-.37c-.96,2.2.7,3.57,1.01,5.79s-.02,6.61-1.49,8.42c-.3.37-6.71,6.05-7.12,6.29-1.1.64-7.34,2.55-8.74,2.64-1.72.11-3.11-.59-3.67-.59-.22,0-.77.58-1.46.64-.44.04-3.16-.28-3.59-.4s-.39-.79-.61-.92c-.34-.2-.96.34-1.48.02-.3-.19-.48-.91-1.22-1.39-2.53-1.65-4.58-.99-7.26-3.76-3.93-4.06-3.05-6.55-4.41-11.32-.09-.32-.7-.27-.71-.48-.43-8.49,12.24-20.27,20.86-18.66,3.7.69,9.21,2.51,11.96,4.4Z"/>
  <path class="st0" d="M98.15,339.31c-1.57,1.53-2.76,3.58-4.53,5.21-5.04,4.62-7.82,8.88-11.18,14.9-1.32,2.37-2.33,7.22-4,8.67-.29.25-3.17,1.84-3.38,1.82-.12,0-1.95-1.07-2.03-1.15-.79-.86.07-3.26.39-4.39,1.37-4.82,5.43-12.14,8.13-16.48,4.97-8,12.54-14.21,20.26-19.23,2.66-1.73,9.02-4.57,12.16-4.55,1.59.01,3.69.16,3.5,2-.25,2.41-4.28,4.57-6.34,5.44-5.06,2.14-8.81,3.68-12.99,7.76Z"/>
  <path class="st0" d="M75.76,386.07c1.44,4.16,1.09,4.31,1.32,8.77.42,8.06.95,15.04.42,23.17-.16,2.38.15,4.77-.42,7.12l-1.11-.2c-.77-1.75-.85-3.72-1.43-5.51-.32-.99-1.07-1.67-1.39-2.65-1.89-5.72-1.36-15.42-1.55-21.59-.08-2.7-1.47-12.24,1.46-13.58,1.87-.86,2.26,3.2,2.7,4.47Z"/>
  <path class="st0" d="M186.37,338.23c-.2-.29-.58.04-.6-1.05-.15-5.54,5.65-1.9,7.76.33,3.9,4.14,4.07,7.22,4.8,12.43.39,2.77,1.59,6.3.24,8.8s-4.16-.72-4.77-2.4c-1.01-2.77-1.15-7.61-2.41-10.45-1.35-3.06-3.22-5-5.02-7.66Z"/>
  <path class="st1" d="M522.47,343.72c3.35,1.93,7.2,2.1,10.38,3.75s4.76,4.28,6.9,6.42c.52.52,1.91.96,2.69,1.62,1.34,1.14,2.03,3.02,3.26,4.07,4.78,4.08,10.15,7.81,14.22,12.39,7.65,8.59,8.47,14.88,10.87,25.71.48,2.17,1.83,5.56,2.09,7.46.71,5.18.55,10.38.35,15.44-.37,9.57-2.1,21.42-6.55,29.8-3.93,7.4-6.68,14-12.57,19.95-6.97,7.05-16.66,13.24-26.57,15.19-1.37.27-3.5-.23-4.34-.04-.63.14-1.08.97-1.9.97-.66,0-1.18-.7-1.84-.7s-1.16.69-1.83.69c-.75,0-2.46-1.12-3.39-1.36-.38-.1-.88.21-1.32.16-3.15-.4-9.69-2.01-12.81-3.57-.48-.24-1.7-1.76-2.31-2.18-4.01-2.69-6.89-3.48-10.71-7.12s-8.32-6.04-11.38-10.64c-3.64-5.47-6.3-11.15-9.39-16.88-1.24-2.29-5.65-15.47-5.79-17.73-.11-1.81.12-2.63-.18-4.89-.54-3.99-1.04-8.58-1.29-12.73-.21-3.49,1.58-6.92,1.75-10.65.3-6.24,1.3-10.16,2.96-16.22,1.32-4.82,4.75-10.44,7.72-14.32,1.44-1.88,2.13-4.74,3.41-6.17,2.01-2.24,3.51-3.36,5.11-5.79,2.53-3.82,8.76-6.95,12.59-9.16.68-.39,1.22-1.38,1.71-1.59,1.43-.63,7.3-2.06,9.05-2.26s4.76-.84,6.59-.73c2.18.14,4.55.85,6.93.88,2.15.02,3.15-1.18,5.57.21ZM520.99,378.63c-8.08-3.99-13.95,1.18-19.97,5.83-1.23,3.79-4.86,7.88-6.39,11.09-.39.82-.26,3-.47,3.99-.18.84-1.16,1.74-.59,2.82l-1.11.24c-.97,4.11-.94,8.14-2.58,12.06,1.11.6.35,4.07.51,5.79.28,3.01,1.33,5.38,1.9,8.01,1.6,7.28,1.75,16.13,9.4,19.62,4.9,2.24,7.98,2.14,13.05,1.36,1.14-.17,2.6.83,3.09-1.51l.53.73c1.89-.37,1.43-1.42,2.24-2.54,1.14-1.57,2.42-3.32,3.52-4.74.04-.06.62.21.94.04,1.36-.69,2.4-4.67,3.13-6.07,1.02-1.96,2.9-3.96,3.41-6.14,1.03-4.44,2.74-8.61,3.69-13.21.63-3.08.62-5.89.9-9.02.13-1.46,1.69-3.58,0-4.59l-.37,1.1c.34-4.42-1.7-8.55-2.92-12.69-.35-1.19-.25-2.37-.6-3.46-.15-.48-3.29-3.74-3.86-4.2-1.29-1.03-5.96-3.74-7.45-4.48Z"/>
  <path class="st1" d="M266.88,340.39c2.81,1.26,6.61.68,9.89.76,4.5.1,5.11,2.41,8.56,3.36,1.01.28,2.09-.02,2.95.36s1.4,2.14,2.04,2.73c3.77,3.47,3.54,4.18,6.03,8.3.59.98,2,1.54,2.61,2.9,1.06,2.38,1.6,6.4,2.36,9.02,1.13,3.87,2.69,7.61,3.4,11.66,1.47,8.35-1.65,19.62-3.72,27.73-1.2,4.68-1.64,10.22-2.95,14.62-1.5,5.03-4.31,9.86-6.62,14.35-2.49,4.85-4.87,9.42-8.07,13.78-1.15,1.56-3.33,2.62-4.61,4.11-1.79,2.09-3.3,4.86-5.16,7.24-4.5,5.76-9.45,11.06-15.76,14.73-4.09,2.38-9.45,4.3-13.99,6.21-2.52,1.06-6.91,3.62-9.71,3.12-.78-.14-.95-.78-1.49-.94-1.31-.37-4.03,0-5.51-.17-5.56-.62-5.59-2.77-9.14-6.09-2.5-2.34-2.97-1.41-4.82-5.29-3.22-6.73-4.94-10.35-7.34-17.64-.97-2.94-2.82-6-3.13-9.02-.54-5.25.16-11.82.42-17.19.56-11.3,1.38-21.73,5.75-32.45.33-.81,1.8-2.72,1.83-2.9.07-.41-.47-1.39-.28-1.6.05-.06.73.01,1.07-.21,1.03-.68.58-2.23.85-3.21,1.3-4.82,2.69-4.47,4.85-8.01,1.28-2.1.87-3.29,1.5-4.74.29-.65,3.27-3.37,3.95-4.49.59-.98,1.48-3.89,1.83-4.25.27-.28,1-.28,1.36-.65,4.18-4.31,7.83-10.1,12.54-13.92,1.15-.93,3.18-1.7,4.36-2.62,2.1-1.65,5.73-5.46,7.84-6.48,2.35-1.15,14.16-4.08,16.33-3.11ZM254.05,357.24c-1.86-.79-3.31.49-4.29,2.01-2.48,3.87-3.88,8.5-5.86,12.51s-5.84,8.91-5.96,13.11c0,.22-.62.2-.7.5-1.57,5.27-3.28,7.89-3.88,13.5-.3,2.74-1.64,3.39-.83,7.26,1.15,5.45,3.95.06,4.84-2.33,4.04-10.93,6.89-21.46,12.01-32,.35-.72,1.72-2.01,2.07-2.78.69-1.53.56-3.48,1-4.88.7-2.23,2.69-4.31,1.6-6.9ZM274.34,386.21s.52.33.91.03c1.27-.99.98-3.5,1.44-4.83.27-.77,1.06-1.2,1.38-1.93,2.09-4.79,2.04-8.5,2.88-13.28.15-.84,1.73-2.27-.14-2.72-1.11.87-3.33,1.12-4.27,1.99-.58.54-3.3,6.14-3.76,7.26-1.2,2.9-1.89,6.47-3.22,8.98-2.88,5.42-3.78,11.21-5.25,17.08-1.26,5-3.73,10.14-2.06,15.32.62-.17,1.47.08,1.98-.31.25-.19,2.76-3.64,2.93-4.08,1.01-2.53,1.1-5.92,1.92-8.73,1.05-3.62,3.24-6.74,4.33-10,.3-.9.72-4.43.94-4.76ZM281.53,427.94c2.65-4.18,6.99-7.77,7.47-12.95.26-2.88-3-1.25-4.37-.3-2.64,1.85-4.21,5.07-6.1,7.49-3.67,4.7-8.7,11.3-12.8,15.32-1.62,1.59-2.08,2.63-3.53,4.34-2.74,3.23-9.37,8.96-13.28,10.23-2.31.75-2.06.54-4.24,1.64-3.48,1.74-7.51,1.68-9.29-2.12-.93-.59-.34,1.62-2.18.16-3.62-2.88-7.2-10.63-8.01-15.13-.32-1.78-.02-3.79-.57-5.68-.44-1.5-1.92-4.73-3.88-3.55-.58.35-.56,9.07-.4,10.4.19,1.56,1.3,3.33,1.72,4.52,3.34,9.36,9.51,23.25,21.53,21.72,2.87-.37,7.84-1.03,9.97-2.89,1.14-1,2-2.25,3.46-3.51,5.66-4.91,10.13-9.76,14.91-15.22,1.57-1.79,1.46-3.56,2.35-4.9.77-1.15,3.69-2.98,4.44-4.11.99-1.5,1.57-3.53,2.8-5.47Z"/>
  <path d="M520.99,378.63c1.49.73,6.16,3.45,7.45,4.48.58.46,3.71,3.72,3.86,4.2.35,1.09.25,2.27.6,3.46,1.22,4.15,3.26,8.28,2.92,12.69l.37-1.1c1.68,1.01.12,3.13,0,4.59-.27,3.13-.27,5.94-.9,9.02-.94,4.6-2.66,8.77-3.69,13.21-.5,2.19-2.38,4.18-3.41,6.14-.73,1.4-1.77,5.39-3.13,6.07-.33.16-.9-.1-.94-.04-1.1,1.43-2.37,3.17-3.52,4.74-.82,1.12-.35,2.17-2.24,2.54l-.53-.73c-.49,2.33-1.95,1.33-3.09,1.51-5.07.78-8.14.88-13.05-1.36-7.64-3.49-7.79-12.34-9.4-19.62-.58-2.63-1.63-5-1.9-8.01-.16-1.71.6-5.19-.51-5.79,1.64-3.93,1.61-7.95,2.58-12.06l1.11-.24c-.57-1.08.42-1.98.59-2.82.21-.99.08-3.17.47-3.99,1.52-3.21,5.16-7.3,6.39-11.09,6.02-4.64,11.89-9.82,19.97-5.83Z"/>
  <path d="M281.53,427.94c-1.23,1.93-1.81,3.97-2.8,5.47-.74,1.13-3.67,2.95-4.44,4.11-.89,1.33-.79,3.11-2.35,4.9-4.78,5.46-9.26,10.31-14.91,15.22-1.45,1.26-2.31,2.51-3.46,3.51-2.13,1.85-7.1,2.52-9.97,2.89-12.02,1.53-18.19-12.35-21.53-21.72-.43-1.19-1.53-2.96-1.72-4.52-.16-1.33-.18-10.05.4-10.4,1.96-1.19,3.44,2.04,3.88,3.55.55,1.89.25,3.9.57,5.68.81,4.5,4.39,12.25,8.01,15.13,1.84,1.46,1.25-.75,2.18-.16,1.79,3.8,5.82,3.86,9.29,2.12,2.18-1.1,1.93-.89,4.24-1.64,3.91-1.26,10.54-7,13.28-10.23,1.46-1.71,1.91-2.75,3.53-4.34,4.1-4.02,9.13-10.62,12.8-15.32,1.89-2.41,3.45-5.64,6.1-7.49,1.37-.96,4.63-2.58,4.37.3-.47,5.18-4.81,8.78-7.47,12.95Z"/>
  <path d="M274.34,386.21c-.22.33-.64,3.86-.94,4.76-1.08,3.26-3.28,6.38-4.33,10-.81,2.81-.9,6.21-1.92,8.73-.17.44-2.68,3.89-2.93,4.08-.51.39-1.36.14-1.98.31-1.67-5.18.81-10.32,2.06-15.32,1.47-5.87,2.38-11.66,5.25-17.08,1.33-2.51,2.02-6.08,3.22-8.98.46-1.12,3.18-6.72,3.76-7.26.94-.87,3.16-1.12,4.27-1.99,1.87.45.29,1.88.14,2.72-.84,4.78-.79,8.49-2.88,13.28-.32.73-1.11,1.16-1.38,1.93-.46,1.34-.17,3.84-1.44,4.83-.38.3-.88-.07-.91-.03Z"/>
  <path d="M254.05,357.24c1.09,2.59-.91,4.68-1.6,6.9-.44,1.4-.31,3.35-1,4.88-.35.77-1.72,2.06-2.07,2.78-5.11,10.53-7.96,21.07-12.01,32-.89,2.39-3.69,7.78-4.84,2.33-.82-3.87.53-4.52.83-7.26.61-5.61,2.31-8.23,3.88-13.5.09-.29.7-.27.7-.5.12-4.2,4.04-9.2,5.96-13.11s3.38-8.64,5.86-12.51c.97-1.52,2.43-2.81,4.29-2.01Z"/>
</svg>